<svg width="73" height="19" viewBox="0 0 73 19" fill="none" xmlns="http://www.w3.org/2000/svg">
<path d="M31.456 14V3.44H38.224V4.56H32.704V7.792H36.928V8.912H32.704V12.88H38.416V14H31.456ZM39.278 9.488V8.448H43.102V9.488H39.278ZM56.3773 9.104V14H55.1453V9.264C55.1453 8.624 54.9799 8.11733 54.6493 7.744C54.3293 7.36 53.8813 7.168 53.3053 7.168C52.7292 7.168 52.2492 7.36 51.8652 7.744C51.4919 8.128 51.3053 8.59733 51.3053 9.152V14H50.0732V9.264C50.0732 8.63467 49.9026 8.128 49.5612 7.744C49.2306 7.36 48.7826 7.168 48.2172 7.168C47.6306 7.168 47.1506 7.36533 46.7772 7.76C46.4146 8.144 46.2332 8.64533 46.2332 9.264V14H45.0012V6.208H46.1532V7.024C46.7292 6.36267 47.5026 6.032 48.4732 6.032C49.6039 6.032 50.4039 6.48 50.8733 7.376C51.5026 6.48 52.3933 6.032 53.5452 6.032C54.4306 6.032 55.1239 6.30933 55.6252 6.864C56.1266 7.41867 56.3773 8.16533 56.3773 9.104ZM64.5056 9.2V14H63.3536V12.992C62.7563 13.7813 61.8816 14.176 60.7296 14.176C59.919 14.176 59.263 13.9787 58.7616 13.584C58.2603 13.1787 58.0096 12.6453 58.0096 11.984C58.0096 11.3227 58.2656 10.7947 58.7776 10.4C59.2896 10.0053 59.967 9.808 60.8096 9.808H63.2736V9.136C63.2736 8.50667 63.103 8.02133 62.7616 7.68C62.431 7.33867 61.9723 7.168 61.3856 7.168C60.511 7.168 59.7536 7.584 59.1136 8.416L58.2976 7.744C58.991 6.60267 60.047 6.032 61.4656 6.032C62.4043 6.032 63.1456 6.30933 63.6896 6.864C64.2336 7.408 64.5056 8.18667 64.5056 9.2ZM63.2736 11.008V10.816H60.9536C59.8336 10.816 59.2736 11.184 59.2736 11.92C59.2736 12.304 59.423 12.608 59.7216 12.832C60.031 13.0453 60.4203 13.152 60.8896 13.152C61.5403 13.152 62.1003 12.944 62.5696 12.528C63.039 12.112 63.2736 11.6053 63.2736 11.008ZM66.7988 14V6.208H68.0308V14H66.7988ZM66.4948 3.232C66.4948 2.98667 66.5854 2.77867 66.7668 2.608C66.9481 2.42667 67.1668 2.336 67.4228 2.336C67.6681 2.336 67.8814 2.42667 68.0628 2.608C68.2441 2.77867 68.3348 2.98667 68.3348 3.232C68.3348 3.488 68.2441 3.70133 68.0628 3.872C67.8921 4.04267 67.6788 4.128 67.4228 4.128C67.1668 4.128 66.9481 4.04267 66.7668 3.872C66.5854 3.70133 66.4948 3.488 66.4948 3.232ZM70.4163 14V2H71.6483V14H70.4163Z" fill="#555555"/>
<path d="M16.2077 3.00426H0.552264C0.510436 2.99858 0.468032 2.99858 0.426204 3.00426L0.324155 3.04628C0.291498 3.06201 0.261192 3.08222 0.234112 3.10631C0.199961 3.12953 0.16959 3.15788 0.144069 3.19035L0.108052 3.22637C0.105792 3.24431 0.105792 3.26246 0.108052 3.28039C0.0884438 3.31679 0.0723628 3.35499 0.0600286 3.39445C0.0348389 3.44224 0.0147198 3.49254 0 3.54452V14.4097C0 14.5689 0.0632443 14.7216 0.17582 14.8342C0.288396 14.9468 0.441081 15.01 0.600287 15.01H16.2077C16.367 15.01 16.5196 14.9468 16.6322 14.8342C16.7448 14.7216 16.808 14.5689 16.808 14.4097V3.60455C16.808 3.44534 16.7448 3.29266 16.6322 3.18008C16.5196 3.06751 16.367 3.00426 16.2077 3.00426ZM8.40402 8.29279L2.5212 4.20484H15.0612L8.40402 8.29279ZM1.20057 13.8094V4.7511L8.06185 9.49937C8.09663 9.51976 8.13272 9.53781 8.1699 9.55339H8.21793C8.27693 9.58054 8.33965 9.59875 8.40402 9.60742C8.48939 9.60514 8.5733 9.58468 8.65013 9.54739H8.69215L15.6075 5.27935V13.8094H1.20057Z" fill="#555555"/>
</svg>
