<svg width="103" height="19" viewBox="0 0 103 19" fill="none" xmlns="http://www.w3.org/2000/svg">
<path d="M42.96 3.44H44.32L40.32 14.176H39.872L36.528 5.792L33.184 14.176H32.736L28.72 3.44H30.096L33.008 11.488L36.304 3.264H36.752L40.048 11.472L42.96 3.44ZM52.5505 9.104V14H51.3185V9.264C51.3185 8.624 51.1425 8.11733 50.7905 7.744C50.4492 7.36 49.9798 7.168 49.3825 7.168C48.7852 7.168 48.2945 7.36533 47.9105 7.76C47.5265 8.15467 47.3345 8.656 47.3345 9.264V14H46.1025V2H47.3345V7.088C47.8998 6.384 48.6785 6.032 49.6705 6.032C50.5558 6.032 51.2545 6.31467 51.7665 6.88C52.2892 7.43467 52.5505 8.176 52.5505 9.104ZM60.685 9.2V14H59.533V12.992C58.9357 13.7813 58.061 14.176 56.909 14.176C56.0983 14.176 55.4423 13.9787 54.941 13.584C54.4397 13.1787 54.189 12.6453 54.189 11.984C54.189 11.3227 54.445 10.7947 54.957 10.4C55.469 10.0053 56.1463 9.808 56.989 9.808H59.453V9.136C59.453 8.50667 59.2823 8.02133 58.941 7.68C58.6103 7.33867 58.1517 7.168 57.565 7.168C56.6903 7.168 55.933 7.584 55.293 8.416L54.477 7.744C55.1703 6.60267 56.2263 6.032 57.645 6.032C58.5837 6.032 59.325 6.30933 59.869 6.864C60.413 7.408 60.685 8.18667 60.685 9.2ZM59.453 11.008V10.816H57.133C56.013 10.816 55.453 11.184 55.453 11.92C55.453 12.304 55.6023 12.608 55.901 12.832C56.2103 13.0453 56.5997 13.152 57.069 13.152C57.7197 13.152 58.2797 12.944 58.749 12.528C59.2183 12.112 59.453 11.6053 59.453 11.008ZM67.2341 12.96V14C66.7115 14.1173 66.2795 14.176 65.9381 14.176C65.1061 14.176 64.4608 13.9627 64.0021 13.536C63.5435 13.1093 63.3141 12.48 63.3141 11.648V7.312H62.0021V6.208H63.3141V4.08H64.5461V6.208H66.9781V7.312H64.5461V11.568C64.5461 12.1013 64.6795 12.4853 64.9461 12.72C65.2235 12.944 65.6395 13.056 66.1941 13.056C66.4928 13.056 66.8395 13.024 67.2341 12.96ZM68.0159 12.656L68.7999 11.84C69.2052 12.256 69.5732 12.56 69.9039 12.752C70.2452 12.944 70.6239 13.04 71.0399 13.04C71.4772 13.04 71.8345 12.944 72.1119 12.752C72.3892 12.5493 72.5279 12.2773 72.5279 11.936C72.5279 11.6373 72.4265 11.408 72.2239 11.248C72.0319 11.0773 71.6799 10.8907 71.1679 10.688L70.4159 10.368C69.7439 10.0907 69.2532 9.78667 68.9439 9.456C68.6345 9.12533 68.4799 8.70933 68.4799 8.208C68.4799 7.54667 68.7252 7.01867 69.2159 6.624C69.7172 6.22933 70.3465 6.032 71.1039 6.032C72.1599 6.032 73.0292 6.44267 73.7119 7.264L72.9599 8.032C72.3839 7.456 71.7439 7.168 71.0399 7.168C70.6452 7.168 70.3305 7.25333 70.0959 7.424C69.8612 7.59467 69.7439 7.83467 69.7439 8.144C69.7439 8.38933 69.8292 8.592 69.9999 8.752C70.1812 8.90133 70.5172 9.07733 71.0079 9.28L71.7279 9.584C72.4745 9.904 73.0025 10.24 73.3119 10.592C73.6319 10.9333 73.7919 11.3653 73.7919 11.888C73.7919 12.6133 73.5252 13.1787 72.9919 13.584C72.4692 13.9787 71.8239 14.176 71.0559 14.176C69.8079 14.176 68.7945 13.6693 68.0159 12.656ZM81.5375 9.2V14H80.3855V12.992C79.7882 13.7813 78.9135 14.176 77.7615 14.176C76.9508 14.176 76.2948 13.9787 75.7935 13.584C75.2922 13.1787 75.0415 12.6453 75.0415 11.984C75.0415 11.3227 75.2975 10.7947 75.8095 10.4C76.3215 10.0053 76.9988 9.808 77.8415 9.808H80.3055V9.136C80.3055 8.50667 80.1348 8.02133 79.7935 7.68C79.4628 7.33867 79.0042 7.168 78.4175 7.168C77.5428 7.168 76.7855 7.584 76.1455 8.416L75.3295 7.744C76.0228 6.60267 77.0788 6.032 78.4975 6.032C79.4362 6.032 80.1775 6.30933 80.7215 6.864C81.2655 7.408 81.5375 8.18667 81.5375 9.2ZM80.3055 11.008V10.816H77.9855C76.8655 10.816 76.3055 11.184 76.3055 11.92C76.3055 12.304 76.4548 12.608 76.7535 12.832C77.0628 13.0453 77.4522 13.152 77.9215 13.152C78.5722 13.152 79.1322 12.944 79.6015 12.528C80.0708 12.112 80.3055 11.6053 80.3055 11.008ZM90.6786 7.2C91.4146 7.97867 91.7826 8.944 91.7826 10.096C91.7826 11.248 91.4093 12.2187 90.6626 13.008C89.9266 13.7867 89.0146 14.176 87.9266 14.176C86.7 14.176 85.7453 13.744 85.0626 12.88V16.88H83.8306V6.208H84.9826V7.456C85.2813 7.008 85.692 6.66133 86.2146 6.416C86.7373 6.16 87.308 6.032 87.9266 6.032C89.036 6.032 89.9533 6.42133 90.6786 7.2ZM89.7186 12.208C90.252 11.6533 90.5186 10.9547 90.5186 10.112C90.5186 9.26933 90.252 8.57067 89.7186 8.016C89.196 7.45067 88.54 7.168 87.7506 7.168C87.004 7.168 86.364 7.424 85.8306 7.936C85.308 8.448 85.0466 9.168 85.0466 10.096C85.0466 11.0453 85.3026 11.776 85.8146 12.288C86.3373 12.7893 86.9826 13.04 87.7506 13.04C88.54 13.04 89.196 12.7627 89.7186 12.208ZM100.468 7.2C101.204 7.97867 101.572 8.944 101.572 10.096C101.572 11.248 101.199 12.2187 100.452 13.008C99.716 13.7867 98.804 14.176 97.716 14.176C96.4893 14.176 95.5347 13.744 94.852 12.88V16.88H93.62V6.208H94.772V7.456C95.0707 7.008 95.4813 6.66133 96.004 6.416C96.5267 6.16 97.0973 6.032 97.716 6.032C98.8253 6.032 99.7427 6.42133 100.468 7.2ZM99.508 12.208C100.041 11.6533 100.308 10.9547 100.308 10.112C100.308 9.26933 100.041 8.57067 99.508 8.016C98.9853 7.45067 98.3293 7.168 97.54 7.168C96.7933 7.168 96.1533 7.424 95.62 7.936C95.0973 8.448 94.836 9.168 94.836 10.096C94.836 11.0453 95.092 11.776 95.604 12.288C96.1267 12.7893 96.772 13.04 97.54 13.04C98.3293 13.04 98.9853 12.7627 99.508 12.208Z" fill="#555555"/>
<path fill-rule="evenodd" clip-rule="evenodd" d="M15.3774 2.61581C13.6853 0.929854 11.4351 0.000977574 9.03756 0C4.09766 0 0.0770898 4.00103 0.0751616 8.91884C0.0744704 10.4909 0.487169 12.0254 1.27149 13.378L0 18L4.75109 16.7597C6.06012 17.4703 7.534 17.8448 9.034 17.8453H9.03763C9.03734 17.8453 9.03793 17.8453 9.03763 17.8453C13.977 17.8453 17.9979 13.8439 18 8.92598C18.0009 6.54265 17.0695 4.30169 15.3774 2.61581ZM9.0376 16.339H9.03458C7.69797 16.3384 6.38693 15.981 5.2432 15.3056L4.97123 15.1449L2.15186 15.8809L2.90442 13.1453L2.72729 12.8647C1.98164 11.6844 1.58782 10.3201 1.5884 8.91935C1.59 4.83186 4.93175 1.50644 9.04062 1.50644C11.0303 1.50706 12.9006 2.27923 14.307 3.68053C15.7134 5.08183 16.4875 6.94447 16.4867 8.92536C16.4851 13.0132 13.1434 16.339 9.0376 16.339Z" fill="#555555"/>
<path fill-rule="evenodd" clip-rule="evenodd" d="M13.1236 10.7866C12.8997 10.675 11.7987 10.136 11.5934 10.0615C11.3882 9.98715 11.2389 9.94997 11.0896 10.1731C10.9403 10.3961 10.5111 10.8982 10.3805 11.047C10.2499 11.1956 10.1192 11.2143 9.89534 11.1027C9.67142 10.9911 8.94985 10.7558 8.09451 9.99653C7.42875 9.40553 6.97935 8.67575 6.84867 8.45258C6.71806 8.22951 6.83477 8.10891 6.94689 7.99775C7.04763 7.89786 7.17085 7.73746 7.28283 7.6073C7.39477 7.47721 7.4321 7.38416 7.50675 7.23553C7.5814 7.08676 7.54411 6.9566 7.48809 6.84508C7.4321 6.73353 6.98426 5.63655 6.79766 5.19023C6.61583 4.75572 6.43124 4.81459 6.29376 4.80767C6.16334 4.80119 6.01385 4.79985 5.86458 4.79985C5.71531 4.79985 5.47265 4.85565 5.26743 5.07871C5.06218 5.30186 4.48362 5.84108 4.48362 6.93795C4.48362 8.03497 5.28606 9.09474 5.39804 9.24343C5.50998 9.39224 6.97713 11.6433 9.22354 12.6086C9.75782 12.8383 10.175 12.9754 10.5002 13.0781C11.0366 13.2478 11.5248 13.2238 11.9107 13.1664C12.3409 13.1024 13.2356 12.6273 13.4222 12.1068C13.6088 11.5861 13.6088 11.1398 13.5528 11.0469C13.4968 10.954 13.3475 10.8982 13.1236 10.7866Z" fill="#555555"/>
</svg>
